<svg xmlns="http://www.w3.org/2000/svg" width="48" height="48"><g fill="none" fill-rule="evenodd"><circle cx="24" cy="24" r="23.5" fill="#FFF" stroke="#646464"/><path fill="#4285F4" d="M33.874 24.234c0-.73-.065-1.43-.187-2.104H24v3.979h5.536a4.732 4.732 0 0 1-2.053 3.104v2.58h3.324c1.945-1.79 3.067-4.427 3.067-7.56z"/><path fill="#34A853" d="M24 34.286c2.777 0 5.105-.921 6.807-2.492l-3.324-2.581c-.92.617-2.1.982-3.483.982-2.679 0-4.946-1.81-5.755-4.24h-3.437v2.664A10.282 10.282 0 0 0 24 34.286z"/><path fill="#FBBC05" d="M18.245 25.954A6.183 6.183 0 0 1 17.922 24c0-.678.117-1.337.323-1.954V19.38h-3.437A10.282 10.282 0 0 0 13.714 24c0 1.66.398 3.23 1.094 4.62l3.437-2.666z"/><path fill="#EA4335" d="M24 17.805c1.51 0 2.866.52 3.932 1.538l2.95-2.95c-1.781-1.66-4.11-2.679-6.882-2.679-4.02 0-7.5 2.305-9.192 5.667l3.437 2.665c.809-2.431 3.076-4.24 5.755-4.24z"/></g></svg>